<svg xmlns="http://www.w3.org/2000/svg" viewBox="0 0 50 50"><path d="M 25 7 C 15.925781 7 9.792969 7.984375 5.554688 10.105469 C 4.609375 10.578125 3.738281 11.140625 3.074219 11.9375 C 2.410156 12.738281 2 13.792969 2 15 C 2 21.167969 3.039063 33.285156 5.050781 39.316406 C 6.21875 42.824219 9.683594 43.949219 9.683594 43.949219 C 12.835938 45 18.308594 46 25 46 C 31.601563 46 37.152344 45.496094 40.363281 43.921875 C 40.449219 43.894531 43.796875 42.777344 44.949219 39.316406 C 46.960938 33.285156 48 21.167969 48 15 C 48 13.789063 47.582031 12.734375 46.917969 11.933594 C 46.25 11.132813 45.378906 10.570313 44.449219 10.105469 C 40.207031 7.984375 34.074219 7 25 7 Z M 25 9 C 33.925781 9 39.792969 10.015625 43.550781 11.894531 C 44.347656 12.292969 44.976563 12.730469 45.378906 13.214844 C 45.78125 13.695313 46 14.210938 46 15 C 46 20.925781 44.863281 33.242188 43.050781 38.683594 C 42.21875 41.175781 39.683594 42.050781 39.683594 42.050781 L 39.617188 42.074219 L 39.550781 42.105469 C 37.097656 43.332031 31.53125 44 25 44 C 18.507813 44 13.164063 43 10.316406 42.050781 C 10.316406 42.050781 7.78125 41.175781 6.949219 38.683594 C 5.136719 33.242188 4 20.925781 4 15 C 4 14.207031 4.214844 13.699219 4.613281 13.21875 C 5.011719 12.734375 5.640625 12.296875 6.445313 11.894531 C 10.207031 10.015625 16.074219 9 25 9 Z M 25 12 C 16.863281 12 12.082031 13.710938 9.15625 14.597656 C 7.871094 14.988281 6.988281 16.199219 7.039063 17.550781 C 7.238281 22.789063 9.105469 33.230469 9.777344 36.894531 C 9.996094 38.082031 10.917969 38.980469 12.035156 39.265625 C 14.816406 39.984375 19.867188 41 25 41 C 27.566406 41 30.351563 40.746094 32.734375 40.40625 C 35.117188 40.066406 37.023438 39.675781 38.097656 39.261719 L 38.101563 39.261719 C 39.039063 38.894531 39.996094 38.132813 40.21875 36.933594 L 40.21875 36.929688 C 40.882813 33.300781 42.757813 22.808594 42.960938 17.550781 C 43.011719 16.183594 42.113281 14.964844 40.8125 14.582031 C 38.011719 13.761719 33.140625 12 25 12 Z M 25 14 C 32.855469 14 37.3125 15.640625 40.25 16.5 C 40.691406 16.632813 40.976563 17.027344 40.960938 17.472656 C 40.773438 22.347656 38.910156 32.960938 38.25 36.566406 C 38.183594 36.921875 37.914063 37.1875 37.375 37.394531 C 36.710938 37.652344 34.753906 38.097656 32.453125 38.425781 C 30.148438 38.753906 27.433594 39 25 39 C 20.132813 39 15.183594 38.015625 12.535156 37.332031 C 12.101563 37.21875 11.816406 36.925781 11.746094 36.535156 C 11.078125 32.894531 9.226563 22.332031 9.039063 17.472656 C 9.023438 17.027344 9.296875 16.648438 9.734375 16.515625 C 12.765625 15.59375 17.136719 14 25 14 Z M 18 34 L 18 36 L 20 36 L 20 34 Z M 24 34 L 24 36 L 26 36 L 26 34 Z M 30 34 L 30 36 L 32 36 L 32 34 Z"/></svg>