<svg xmlns="http://www.w3.org/2000/svg" viewBox="0 0 80 80"><path d="M 32 11 A 1.0001 1.0001 0 0 0 31 12 L 31 20 L 23 20 L 14 20 A 1.0001 1.0001 0 0 0 13 21 L 13 29 L 5 29 A 1.0001 1.0001 0 0 0 4 30 L 4 39 A 1.0001 1.0001 0 0 0 5 40 L 14 40 L 23 40 L 32 40 L 41 40 L 50 40 A 1.0001 1.0001 0 0 0 51 39 L 51 30 A 1.0001 1.0001 0 0 0 50 29 L 42 29 L 42 21 L 42 12 A 1.0001 1.0001 0 0 0 41 11 L 32 11 z M 33 13 L 40 13 L 40 20 L 33 20 L 33 13 z M 15 22 L 22 22 L 22 29 L 15 29 L 15 22 z M 24 22 L 31 22 L 31 29 L 24 29 L 24 22 z M 33 22 L 40 22 L 40 29 L 33 29 L 33 22 z M 59.783203 25.287109 A 1.0001 1.0001 0 0 0 58.958984 25.734375 L 58.177734 26.916016 A 1.0001 1.0001 0 0 0 58.175781 26.917969 C 56.485313 29.483917 55.812567 32.779407 56.058594 35.814453 A 1.0001 1.0001 0 0 0 56.060547 35.835938 C 56.25729 37.727277 56.890044 39.847806 58.238281 41.484375 A 1.0004319 1.0004319 0 1 0 59.783203 40.212891 C 58.795788 39.014309 58.219549 37.226482 58.052734 35.640625 C 57.843537 33.029194 58.464851 30.116424 59.845703 28.019531 L 59.845703 28.017578 L 60.072266 27.677734 L 60.359375 27.871094 C 63.368077 30.219834 64.883911 32.743393 65.048828 35.787109 A 1.0001 1.0001 0 0 0 66.308594 36.699219 C 67.838118 36.2869 69.74976 36.183262 71.449219 36.335938 C 73.148677 36.488611 74.665025 36.945353 75.265625 37.349609 L 75.714844 37.652344 C 75.628784 37.828401 75.540956 38.007145 75.472656 38.142578 C 75.436056 38.215158 75.405426 38.277512 75.384766 38.316406 C 75.364106 38.355296 75.293729 38.439101 75.412109 38.28125 A 1.0001 1.0001 0 0 0 75.324219 38.421875 C 73.920048 41.136056 71.874799 42.329814 69.814453 42.916016 C 67.754108 43.502217 65.728939 43.412733 64.5 43.392578 A 1.0001 1.0001 0 0 0 63.554688 44.021484 C 56.432215 61.884351 45.01697 69.011688 31.509766 69 C 22.634948 68.991214 16.863226 66.146298 13.023438 62.300781 C 12.399919 61.676305 11.826442 61.029693 11.306641 60.363281 C 6.570326 54.300531 5.9216458 46.932403 6 43.019531 A 1.0001907 1.0001907 0 1 0 4 42.980469 C 3.916354 47.157597 4.5687829 54.9865 9.7304688 61.59375 C 10.302668 62.327338 10.92894 63.03532 11.607422 63.714844 C 15.813632 67.927327 22.20063 70.990786 31.507812 71 C 45.562173 71.01216 57.758487 63.297866 65.121094 45.390625 C 66.367937 45.416965 68.244434 45.442135 70.361328 44.839844 C 72.792369 44.148173 75.407334 42.571919 77.076172 39.375 C 77.092572 39.34439 77.133091 39.28647 77.150391 39.253906 C 77.182751 39.192996 77.217591 39.122728 77.257812 39.042969 C 77.338262 38.88345 77.435221 38.686842 77.529297 38.494141 C 77.717449 38.108738 77.896484 37.738281 77.896484 37.738281 A 1.0001 1.0001 0 0 0 77.552734 36.476562 L 76.382812 35.689453 C 76.382812 35.689453 76.380859 35.689453 76.380859 35.689453 A 1.0001 1.0001 0 0 0 76.376953 35.6875 A 1.0001 1.0001 0 0 0 76.046875 35.544922 C 74.900693 34.880629 73.380829 34.501137 71.628906 34.34375 C 70.075538 34.2042 68.421714 34.30884 66.855469 34.597656 C 66.360327 31.399568 64.562154 28.610197 61.580078 26.285156 A 1.0001 1.0001 0 0 0 61.523438 26.244141 L 60.349609 25.457031 A 1.0001 1.0001 0 0 0 59.783203 25.287109 z M 6 31 L 13 31 L 13 38 L 6 38 L 6 31 z M 15 31 L 22 31 L 22 38 L 15 38 L 15 31 z M 24 31 L 31 31 L 31 38 L 24 38 L 24 31 z M 33 31 L 40 31 L 40 38 L 33 38 L 33 31 z M 42 31 L 49 31 L 49 38 L 42 38 L 42 31 z M 54.160156 41.535156 C 53.620156 41.625156 53.259609 42.145547 53.349609 42.685547 C 53.429609 43.176547 53.859078 43.515625 54.330078 43.515625 C 54.390078 43.515625 54.449766 43.515859 54.509766 43.505859 C 55.049766 43.405859 55.421312 42.885703 55.320312 42.345703 C 55.231312 41.805703 54.711875 41.435156 54.171875 41.535156 L 54.160156 41.535156 z M 49.330078 41.945312 C 48.769078 41.965312 48.339375 42.424375 48.359375 42.984375 C 48.380375 43.524375 48.819375 43.945312 49.359375 43.945312 L 49.398438 43.945312 C 49.949438 43.925312 50.380375 43.464062 50.359375 42.914062 C 50.340375 42.364063 49.880078 41.925312 49.330078 41.945312 z M 9.359375 42.005859 C 8.809375 42.005859 8.359375 42.444141 8.359375 42.994141 C 8.359375 43.555141 8.810375 43.994141 9.359375 43.994141 C 9.920375 43.994141 10.369141 43.554141 10.369141 42.994141 C 10.369141 42.444141 9.920375 42.005859 9.359375 42.005859 z M 14.369141 42.005859 C 13.808141 42.005859 13.369141 42.444141 13.369141 42.994141 C 13.369141 43.555141 13.809141 43.994141 14.369141 43.994141 C 14.919141 43.994141 15.359375 43.554141 15.359375 42.994141 C 15.359375 42.444141 14.919141 42.005859 14.369141 42.005859 z M 19.359375 42.005859 C 18.809375 42.005859 18.369141 42.444141 18.369141 42.994141 C 18.369141 43.555141 18.810375 43.994141 19.359375 43.994141 C 19.920375 43.994141 20.369141 43.554141 20.369141 42.994141 C 20.369141 42.444141 19.920375 42.005859 19.359375 42.005859 z M 24.369141 42.005859 C 23.808141 42.005859 23.359375 42.444141 23.359375 42.994141 C 23.359375 43.555141 23.809141 43.994141 24.369141 43.994141 C 24.919141 43.994141 25.369141 43.554141 25.369141 42.994141 C 25.369141 42.444141 24.919141 42.005859 24.369141 42.005859 z M 29.359375 42.005859 C 28.809375 42.005859 28.369141 42.444141 28.369141 42.994141 C 28.369141 43.555141 28.810375 43.994141 29.359375 43.994141 C 29.920375 43.994141 30.359375 43.554141 30.359375 42.994141 C 30.359375 42.444141 29.920375 42.005859 29.359375 42.005859 z M 34.369141 42.005859 C 33.808141 41.995859 33.370375 42.444141 33.359375 42.994141 C 33.359375 43.555141 33.810375 43.995859 34.359375 44.005859 C 34.920375 44.005859 35.358141 43.555859 35.369141 43.005859 C 35.369141 42.445859 34.919141 42.005859 34.369141 42.005859 z M 39.369141 42.015625 C 38.818141 42.005625 38.369141 42.455859 38.369141 43.005859 C 38.358141 43.565859 38.809375 44.015625 39.359375 44.015625 L 39.369141 44.015625 C 39.919141 44.015625 40.359375 43.565625 40.359375 43.015625 C 40.359375 42.465625 39.919141 42.015625 39.369141 42.015625 z M 44.359375 42.015625 C 43.809375 42.025625 43.358141 42.475391 43.369141 43.025391 C 43.369141 43.576391 43.809141 44.025625 44.369141 44.015625 C 44.919141 44.015625 45.370375 43.575625 45.359375 43.015625 C 45.359375 42.465625 44.910375 42.015625 44.359375 42.015625 z"/></svg>