<?xml version="1.0"?><svg xmlns="http://www.w3.org/2000/svg" viewBox="0 0 24 24">    <path d="M 12 2 C 8.738 2 5.8465313 3.577 4.0195312 6 L 4 6 L 4 6.0253906 C 3.013 7.3433906 2.3376563 8.9083281 2.0976562 10.611328 C 1.4576562 15.150328 4.1361719 19.363703 8.3261719 21.220703 C 9.5941719 21.782703 10.823906 21.999047 12.003906 21.998047 C 12.555906 21.999047 13 21.544141 13 20.994141 L 13 20 L 13 13 C 13 12.448 12.552 12 12 12 L 10 12 C 9.448 12 9 11.552 9 11 C 9 10.444 9.4537188 9.993 10.011719 10 C 10.559719 10.007 11 9.548 11 9 L 11 8 C 11 7.448 11.448 7 12 7 L 13 7 C 14.105 7 15 6.105 15 5 L 15 4.5898438 C 17.928 5.7798437 20 8.65 20 12 C 20 12.012 19.998047 12.023156 19.998047 12.035156 C 19.998047 12.035156 20.001919 12.035146 20.001953 12.035156 A 1 1 0 0 0 21 13 A 1 1 0 0 0 22 12 A 1 1 0 0 0 21.996094 11.90625 C 21.945058 6.4357007 17.482384 2 12 2 z M 4.2089844 10.208984 L 9 15 L 9 16 C 9 17.105 9.895 18 11 18 L 11 19.931641 C 7.06 19.436641 4 16.072 4 12 C 4 11.384 4.0769844 10.785984 4.2089844 10.208984 z M 15.632812 10.976562 C 15.297754 11.019873 15 11.294531 15 11.691406 L 15 18.833984 C 15 19.272984 15.526703 19.498313 15.845703 19.195312 L 17.273438 17.837891 L 18.820312 21.404297 C 19.087313 22.019297 19.806016 22.296531 20.416016 22.019531 C 21.018016 21.745531 21.284719 21.035594 21.011719 20.433594 L 19.457031 17 L 21.033203 17 C 21.483203 17 21.704859 16.452625 21.380859 16.140625 L 16.220703 11.173828 C 16.048953 11.008828 15.833848 10.950576 15.632812 10.976562 z"/></svg>