<svg xmlns="http://www.w3.org/2000/svg" width="50" height="50" viewBox="0 0 50 50"><path d="M 25 2 C 14.393 2 5.4448281 9.219 2.7988281 19 L 4.8847656 19 C 5.6328266 16.497895 6.8461316 14.19903 8.40625 12.181641 C 10.114235 13.141537 12.090616 13.940594 14.279297 14.550781 C 13.91318 15.956331 13.6105 17.438405 13.398438 19 L 15.4375 19 C 15.641857 17.613835 15.92184 16.291374 16.253906 15.035156 C 18.665969 15.556821 21.266428 15.878153 24 15.941406 L 24 19 L 26 19 L 26 15.941406 C 28.733724 15.878186 31.3343 15.556666 33.746094 15.035156 C 34.07816 16.291374 34.358143 17.613835 34.5625 19 L 36.601562 19 C 36.3895 17.438405 36.08682 15.956331 35.720703 14.550781 C 37.909413 13.94061 39.885958 13.141814 41.59375 12.181641 C 43.153868 14.19903 44.367173 16.497895 45.115234 19 L 47.201172 19 C 44.555172 9.219 35.607 2 25 2 z M 24 4.1210938 L 24 13.941406 C 21.462321 13.878225 19.049112 13.58048 16.822266 13.107422 C 18.463769 8.2008368 21.066677 4.7669231 24 4.1210938 z M 26 4.1210938 C 28.933323 4.7669231 31.536231 8.2008368 33.177734 13.107422 C 30.95091 13.580576 28.538108 13.878252 26 13.941406 L 26 4.1210938 z M 19.132812 4.8535156 C 17.375631 6.7059051 15.9039 9.3811595 14.841797 12.623047 C 12.925833 12.09135 11.199958 11.418336 9.7207031 10.628906 C 12.253987 7.9337069 15.490342 5.9174973 19.132812 4.8535156 z M 30.867188 4.8535156 C 34.509658 5.9174973 37.746013 7.9337069 40.279297 10.628906 C 38.800219 11.418695 37.074397 12.091158 35.158203 12.623047 C 34.0961 9.3811595 32.624369 6.7059051 30.867188 4.8535156 z M 3 21 L 5.5390625 29 L 7.8691406 29 L 9.9824219 23.019531 L 12.101562 29 L 14.380859 29 L 16.964844 21 L 14.800781 21 L 13.167969 26.587891 L 11.302734 21 L 8.7480469 21 L 6.8027344 26.494141 L 5.1992188 21 L 3 21 z M 18.017578 21 L 20.558594 29 L 22.888672 29 L 25 23.019531 L 27.119141 29 L 29.398438 29 L 31.982422 21 L 29.818359 21 L 28.185547 26.587891 L 26.320312 21 L 23.765625 21 L 21.820312 26.494141 L 20.216797 21 L 18.017578 21 z M 32.982422 21 L 35.533203 29 L 37.871094 29 L 39.992188 23.019531 L 42.119141 29 L 44.40625 29 L 47 21 L 44.828125 21 L 43.189453 26.587891 L 41.318359 21 L 38.753906 21 L 36.800781 26.494141 L 35.189453 21 L 32.982422 21 z M 2.7988281 31 C 5.4448281 40.781 14.393 48 25 48 C 35.607 48 44.555172 40.781 47.201172 31 L 45.115234 31 C 44.367173 33.502105 43.153868 35.80097 41.59375 37.818359 C 39.885765 36.858463 37.909384 36.059406 35.720703 35.449219 C 36.086859 34.043669 36.3895 32.561595 36.601562 31 L 34.5625 31 C 34.357981 32.386165 34.07823 33.708626 33.746094 34.964844 C 31.334031 34.443179 28.733572 34.121847 26 34.058594 L 26 31 L 24 31 L 24 34.058594 C 21.266276 34.121814 18.6657 34.443334 16.253906 34.964844 C 15.92184 33.708626 15.641857 32.386165 15.4375 31 L 13.398438 31 C 13.610645 32.561503 13.913102 34.043742 14.279297 35.449219 C 12.090587 36.05939 10.114042 36.858186 8.40625 37.818359 C 6.8461316 35.80097 5.6328266 33.502105 4.8847656 31 L 2.7988281 31 z M 24 36.058594 L 24 45.878906 C 21.066677 45.233077 18.463769 41.799163 16.822266 36.892578 C 19.04909 36.419424 21.461892 36.121748 24 36.058594 z M 26 36.058594 C 28.537679 36.121775 30.950888 36.41952 33.177734 36.892578 C 31.536099 41.799163 28.933231 45.233077 26 45.878906 L 26 36.058594 z M 14.841797 37.376953 C 15.904122 40.61909 17.375624 43.29399 19.132812 45.146484 C 15.490342 44.082503 12.253987 42.066293 9.7207031 39.371094 C 11.199781 38.581305 12.925603 37.908842 14.841797 37.376953 z M 35.158203 37.376953 C 37.074167 37.90865 38.800042 38.581664 40.279297 39.371094 C 37.746013 42.066293 34.509658 44.082503 30.867188 45.146484 C 32.624474 43.29402 34.095973 40.619018 35.158203 37.376953 z"/></svg>